<?xml version="1.0" standalone="no"?>
<!DOCTYPE svg PUBLIC "-//W3C//DTD SVG 20010904//EN"
 "http://www.w3.org/TR/2001/REC-SVG-20010904/DTD/svg10.dtd">
<svg version="1.0" xmlns="http://www.w3.org/2000/svg"
 width="200.000000pt" height="200.000000pt" viewBox="0 0 200.000000 200.000000"
 preserveAspectRatio="xMidYMid meet">
<metadata>
Created by potrace 1.14, written by Peter Selinger 2001-2017
</metadata>
<g transform="translate(0.000000,200.000000) scale(0.100000,-0.100000)"
fill="#000000" stroke="none">
<path d="M1143 1760 c20 -16 27 -30 27 -56 0 -42 -8 -43 -45 -4 -18 18 -39 30
-54 30 -25 -1 -25 -1 -6 -15 43 -30 44 -33 34 -67 -18 -65 -76 -86 -130 -47
-43 31 -137 28 -223 -7 -36 -14 -69 -30 -72 -35 -3 -5 -33 -9 -68 -9 -54 0
-69 -4 -103 -29 -96 -69 -224 -270 -258 -406 -18 -70 -20 -208 -4 -254 14 -40
8 -47 -23 -27 -20 13 -27 14 -42 3 -14 -10 -17 -30 -18 -111 -1 -85 -4 -101
-21 -115 -43 -35 -57 -56 -57 -84 l0 -28 28 20 c16 11 35 27 42 36 20 25 34
17 16 -10 -44 -66 7 -82 73 -22 40 36 74 47 86 27 3 -5 24 -10 46 -10 l39 0
-32 29 c-39 35 -32 52 9 23 50 -35 127 -69 184 -82 73 -16 208 -9 238 12 22
15 16 16 -91 11 -87 -4 -126 -2 -168 10 -57 17 -189 99 -273 168 -26 22 -47
38 -47 36 0 -21 37 -99 61 -129 26 -33 27 -38 12 -38 -11 0 -35 -9 -56 -19
-40 -20 -48 -11 -27 30 13 24 1 25 -42 3 l-31 -16 21 27 c18 23 22 41 22 100
0 105 14 112 88 48 58 -51 145 -113 157 -113 4 0 -13 23 -37 50 -100 117 -125
189 -115 328 6 75 41 202 57 202 9 0 30 -78 30 -111 0 -12 3 -19 7 -16 3 4 10
51 14 104 12 156 51 217 148 232 43 7 57 15 86 49 46 53 107 82 175 82 38 0
56 5 65 17 15 21 48 10 43 -14 -2 -11 -36 -34 -88 -59 -61 -30 -100 -58 -140
-99 l-55 -57 50 35 c50 34 210 110 259 123 22 5 26 3 26 -15 0 -15 -14 -28
-50 -46 -27 -14 -78 -52 -114 -86 -59 -54 -66 -66 -76 -117 -6 -31 -23 -78
-36 -104 l-25 -48 31 -62 c26 -55 30 -59 30 -33 l0 30 42 -48 c31 -36 64 -60
132 -93 49 -25 94 -50 98 -57 4 -7 8 -37 8 -67 0 -100 17 -173 45 -197 39 -34
61 -31 35 4 -15 21 -23 58 -33 146 -16 135 -24 149 -117 198 -59 30 -90 52
-90 63 0 10 100 7 187 -5 113 -15 184 -42 311 -117 62 -37 134 -79 160 -94 62
-35 180 -62 235 -53 53 9 113 39 129 65 18 28 28 25 28 -9 0 -71 -50 -133
-145 -177 -59 -28 -132 -31 -195 -9 -23 8 -72 15 -107 15 -64 0 -65 1 -61 24
l5 24 -29 -21 c-15 -11 -28 -26 -28 -32 0 -19 47 -35 101 -35 30 0 63 -8 86
-20 56 -30 190 -28 258 4 85 39 143 119 152 210 10 101 -54 195 -178 259 -94
48 -111 50 -414 56 l-290 6 -50 29 c-38 23 -46 25 -35 10 71 -91 172 -126 400
-139 188 -11 311 -49 386 -120 39 -37 37 -58 -7 -80 -68 -36 -154 -11 -341 96
-65 38 -138 75 -162 83 -91 31 -225 59 -316 65 -147 11 -170 32 -170 152 0 67
3 80 28 111 27 36 86 83 177 141 35 22 53 42 59 64 8 25 16 33 45 38 50 10 84
29 120 70 57 65 36 171 -39 190 l-25 6 28 -21z m241 -730 c226 -12 297 -26
388 -79 75 -43 96 -77 78 -122 -13 -31 -30 -39 -30 -14 0 22 -58 83 -104 110
-75 43 -142 56 -325 65 -173 9 -271 24 -271 41 0 11 18 11 264 -1z"/>
<path d="M787 800 l-48 -59 16 -35 c16 -33 49 -66 122 -123 l28 -21 -22 -30
c-12 -16 -29 -46 -37 -67 -15 -34 -15 -40 -1 -62 20 -30 42 -29 68 3 18 23 25
26 66 21 33 -4 50 -11 61 -29 34 -53 68 -78 104 -78 42 0 43 2 15 46 -11 19
-16 34 -11 34 11 0 32 -24 47 -54 13 -26 55 -35 55 -11 0 26 -29 80 -57 106
-23 22 -25 23 -21 4 3 -21 -11 -24 -46 -9 -17 6 -18 4 -12 -19 9 -37 -3 -34
-49 13 -51 53 -104 70 -140 46 -36 -24 -42 -14 -14 23 35 48 30 88 -18 130
-44 38 -73 87 -73 121 0 11 19 41 41 65 l42 45 -34 0 c-29 0 -41 -8 -82 -60z"/>
<path d="M1235 725 c-3 -8 -7 -22 -10 -31 -11 -34 17 -99 58 -137 32 -30 38
-40 28 -50 -10 -9 -18 -5 -39 21 -18 22 -41 36 -67 42 -64 15 -73 11 -30 -13
24 -13 41 -31 43 -44 4 -30 31 -51 42 -34 5 9 10 10 14 3 8 -14 116 -10 117 3
0 19 -34 55 -82 85 -59 36 -72 59 -67 121 3 50 1 61 -7 34z"/>
</g>
</svg>
